<svg viewBox="0 0 190.5 56.43" xmlns="http://www.w3.org/2000/svg" xmlns:xlink="http://www.w3.org/1999/xlink" id="Layer_1" overflow="hidden"><defs></defs><g><path d="M69.32 44.42 69.32 43.58 74.31 43.58 74.31 44.42 72.3 44.42 72.3 50.02 71.33 50.02 71.33 44.42 69.32 44.42Z" fill="#AD976E"/><path d="M75.4 50.02 75.4 43.58 79.44 43.58 79.44 44.42 76.37 44.42 76.37 46.38 79.23 46.38 79.23 47.21 76.37 47.21 76.37 49.18 79.47 49.18 79.47 50.02 75.39 50.02Z" fill="#AD976E"/><path d="M80.74 50.02 80.74 43.58 81.71 43.58 81.71 46.66 81.79 46.66 84.49 43.58 85.71 43.58 83.11 46.48 85.72 50.02 84.55 50.02 82.47 47.14 81.71 48.01 81.71 50.01 80.74 50.01Z" fill="#AD976E"/><path d="M91.83 43.58 91.83 50.02 90.94 50.02 87.67 45.3 87.61 45.3 87.61 50.02 86.64 50.02 86.64 43.58 87.54 43.58 90.82 48.31 90.88 48.31 90.88 43.58 91.84 43.58Z" fill="#AD976E"/><path d="M98.84 46.8C98.84 47.49 98.71 48.08 98.46 48.57 98.21 49.06 97.86 49.44 97.43 49.71 96.99 49.98 96.5 50.11 95.94 50.11 95.38 50.11 94.88 49.98 94.45 49.71 94.01 49.44 93.67 49.06 93.42 48.57 93.17 48.08 93.04 47.48 93.04 46.8 93.04 46.12 93.17 45.52 93.42 45.03 93.67 44.54 94.02 44.16 94.45 43.89 94.89 43.62 95.38 43.49 95.94 43.49 96.5 43.49 96.99 43.62 97.43 43.89 97.87 44.16 98.21 44.53 98.46 45.03 98.71 45.52 98.84 46.11 98.84 46.8ZM97.87 46.8C97.87 46.28 97.79 45.83 97.62 45.47 97.45 45.11 97.22 44.84 96.93 44.65 96.64 44.46 96.31 44.37 95.94 44.37 95.57 44.37 95.24 44.46 94.95 44.65 94.66 44.84 94.43 45.11 94.26 45.47 94.09 45.83 94.01 46.27 94.01 46.8 94.01 47.33 94.09 47.77 94.26 48.13 94.43 48.49 94.66 48.76 94.95 48.95 95.24 49.14 95.57 49.23 95.94 49.23 96.31 49.23 96.64 49.14 96.93 48.95 97.22 48.76 97.45 48.49 97.62 48.13 97.79 47.77 97.87 47.33 97.87 46.8Z" fill="#AD976E"/><path d="M100.05 50.02 100.05 43.58 101.02 43.58 101.02 49.19 103.94 49.19 103.94 50.03 100.05 50.03Z" fill="#AD976E"/><path d="M110.39 46.8C110.39 47.49 110.26 48.08 110.01 48.57 109.76 49.06 109.41 49.44 108.98 49.71 108.54 49.98 108.05 50.11 107.49 50.11 106.93 50.11 106.43 49.98 106 49.71 105.56 49.44 105.22 49.06 104.97 48.57 104.72 48.08 104.59 47.48 104.59 46.8 104.59 46.12 104.72 45.52 104.97 45.03 105.22 44.54 105.57 44.16 106 43.89 106.44 43.62 106.93 43.49 107.49 43.49 108.05 43.49 108.54 43.62 108.98 43.89 109.42 44.16 109.76 44.53 110.01 45.03 110.26 45.52 110.39 46.11 110.39 46.8ZM109.42 46.8C109.42 46.28 109.34 45.83 109.17 45.47 109 45.11 108.77 44.84 108.48 44.65 108.19 44.46 107.86 44.37 107.49 44.37 107.12 44.37 106.79 44.46 106.5 44.65 106.21 44.84 105.98 45.11 105.81 45.47 105.64 45.83 105.56 46.27 105.56 46.8 105.56 47.33 105.64 47.77 105.81 48.13 105.98 48.49 106.21 48.76 106.5 48.95 106.79 49.14 107.12 49.23 107.49 49.23 107.86 49.23 108.19 49.14 108.48 48.95 108.77 48.76 109 48.49 109.17 48.13 109.34 47.77 109.42 47.33 109.42 46.8Z" fill="#AD976E"/><path d="M114.1 43.58 115.07 43.58 115.07 48.15C115.07 48.56 114.99 48.92 114.83 49.21 114.67 49.5 114.44 49.73 114.15 49.88 113.86 50.03 113.51 50.11 113.12 50.11 112.76 50.11 112.43 50.04 112.14 49.91 111.85 49.78 111.62 49.59 111.46 49.33 111.29 49.08 111.21 48.77 111.21 48.41L112.18 48.41C112.18 48.59 112.22 48.74 112.3 48.87 112.38 49 112.5 49.1 112.64 49.17 112.78 49.24 112.95 49.28 113.14 49.28 113.35 49.28 113.52 49.24 113.66 49.15 113.8 49.06 113.91 48.93 113.99 48.76 114.07 48.59 114.1 48.38 114.1 48.14L114.1 43.57Z" fill="#AD976E"/><path d="M116.97 42.84C116.81 42.84 116.67 42.78 116.55 42.67 116.43 42.56 116.38 42.43 116.38 42.28 116.38 42.13 116.44 41.99 116.55 41.88 116.66 41.77 116.81 41.71 116.97 41.71 117.13 41.71 117.27 41.77 117.39 41.88 117.51 41.99 117.56 42.12 117.56 42.27 117.56 42.42 117.5 42.56 117.39 42.67 117.27 42.78 117.13 42.84 116.97 42.84ZM117.45 43.58 117.45 50.02 116.48 50.02 116.48 43.58 117.45 43.58Z" fill="#AD976E"/><path d="M120.45 44.42 120.45 43.58 125.44 43.58 125.44 44.42 123.43 44.42 123.43 50.02 122.46 50.02 122.46 44.42 120.45 44.42Z" fill="#AD976E"/><path d="M126.53 50.02 126.53 43.58 128.83 43.58C129.33 43.58 129.74 43.67 130.07 43.84 130.4 44.01 130.65 44.25 130.81 44.55 130.97 44.85 131.06 45.2 131.06 45.6 131.06 46 130.98 46.34 130.81 46.64 130.65 46.94 130.4 47.17 130.07 47.34 129.74 47.51 129.33 47.59 128.83 47.59L127.09 47.59 127.09 46.75 128.74 46.75C129.05 46.75 129.31 46.7 129.51 46.61 129.71 46.52 129.85 46.39 129.95 46.22 130.04 46.05 130.09 45.84 130.09 45.6 130.09 45.36 130.04 45.15 129.95 44.97 129.86 44.79 129.71 44.65 129.51 44.56 129.31 44.46 129.05 44.42 128.73 44.42L127.51 44.42 127.51 50.03 126.54 50.03ZM129.71 47.12 131.3 50.03 130.19 50.03 128.63 47.12 129.71 47.12Z" fill="#AD976E"/><path d="M132.79 50.02 131.76 50.02 134.08 43.58 135.2 43.58 137.52 50.02 136.49 50.02 134.67 44.75 134.62 44.75 132.8 50.02ZM132.96 47.5 136.31 47.5 136.31 48.32 132.96 48.32 132.96 47.5Z" fill="#AD976E"/><path d="M143.64 43.58 143.64 50.02 142.75 50.02 139.48 45.3 139.42 45.3 139.42 50.02 138.45 50.02 138.45 43.58 139.35 43.58 142.63 48.31 142.69 48.31 142.69 43.58 143.65 43.58Z" fill="#AD976E"/><path d="M148.57 45.28C148.54 44.98 148.4 44.75 148.15 44.59 147.91 44.43 147.6 44.34 147.23 44.34 146.97 44.34 146.74 44.38 146.54 44.46 146.35 44.54 146.2 44.66 146.09 44.8 145.98 44.94 145.93 45.11 145.93 45.29 145.93 45.44 145.97 45.58 146.04 45.69 146.11 45.8 146.21 45.89 146.33 45.97 146.45 46.05 146.58 46.11 146.71 46.16 146.84 46.21 146.98 46.25 147.1 46.28L147.73 46.44C147.94 46.49 148.15 46.56 148.36 46.64 148.58 46.73 148.78 46.84 148.96 46.98 149.14 47.12 149.29 47.29 149.41 47.5 149.52 47.71 149.58 47.96 149.58 48.25 149.58 48.61 149.49 48.94 149.3 49.22 149.11 49.5 148.84 49.73 148.49 49.89 148.13 50.05 147.71 50.14 147.2 50.14 146.69 50.14 146.3 50.06 145.95 49.91 145.6 49.76 145.32 49.54 145.12 49.26 144.92 48.98 144.81 48.64 144.79 48.26L145.77 48.26C145.79 48.49 145.86 48.69 146 48.84 146.14 48.99 146.3 49.11 146.51 49.18 146.72 49.25 146.95 49.29 147.2 49.29 147.47 49.29 147.72 49.25 147.93 49.16 148.14 49.07 148.31 48.95 148.44 48.8 148.56 48.64 148.63 48.46 148.63 48.25 148.63 48.06 148.58 47.9 148.47 47.78 148.36 47.66 148.22 47.56 148.03 47.48 147.85 47.4 147.64 47.33 147.41 47.27L146.65 47.06C146.13 46.92 145.73 46.71 145.42 46.44 145.12 46.17 144.97 45.81 144.97 45.36 144.97 44.99 145.07 44.66 145.27 44.39 145.47 44.11 145.74 43.9 146.09 43.74 146.44 43.58 146.82 43.51 147.25 43.51 147.68 43.51 148.07 43.59 148.41 43.74 148.74 43.89 149.01 44.1 149.2 44.37 149.39 44.64 149.49 44.94 149.5 45.29L148.56 45.29Z" fill="#AD976E"/><path d="M150.75 50.02 150.75 43.58 154.74 43.58 154.74 44.42 151.72 44.42 151.72 46.38 154.46 46.38 154.46 47.21 151.72 47.21 151.72 50.02 150.75 50.02Z" fill="#AD976E"/><path d="M155.94 50.02 155.94 43.58 159.98 43.58 159.98 44.42 156.91 44.42 156.91 46.38 159.77 46.38 159.77 47.21 156.91 47.21 156.91 49.18 160.01 49.18 160.01 50.02 155.93 50.02Z" fill="#AD976E"/><path d="M161.29 50.02 161.29 43.58 163.59 43.58C164.09 43.58 164.5 43.67 164.83 43.84 165.16 44.01 165.41 44.25 165.57 44.55 165.73 44.85 165.82 45.2 165.82 45.6 165.82 46 165.74 46.34 165.57 46.64 165.41 46.94 165.16 47.17 164.83 47.34 164.5 47.51 164.09 47.59 163.59 47.59L161.85 47.59 161.85 46.75 163.5 46.75C163.81 46.75 164.07 46.7 164.27 46.61 164.47 46.52 164.61 46.39 164.71 46.22 164.8 46.05 164.85 45.84 164.85 45.6 164.85 45.36 164.8 45.15 164.71 44.97 164.62 44.79 164.47 44.65 164.27 44.56 164.07 44.46 163.81 44.42 163.49 44.42L162.27 44.42 162.27 50.03 161.3 50.03ZM164.47 47.12 166.06 50.03 164.95 50.03 163.39 47.12 164.47 47.12Z" fill="#AD976E"/><path d="M174.94 46.8C174.94 47.49 174.81 48.08 174.56 48.57 174.31 49.06 173.96 49.44 173.53 49.71 173.09 49.98 172.6 50.11 172.04 50.11 171.48 50.11 170.98 49.98 170.55 49.71 170.11 49.44 169.77 49.06 169.52 48.57 169.27 48.08 169.14 47.48 169.14 46.8 169.14 46.12 169.27 45.52 169.52 45.03 169.77 44.54 170.12 44.16 170.55 43.89 170.99 43.62 171.48 43.49 172.04 43.49 172.6 43.49 173.09 43.62 173.53 43.89 173.97 44.16 174.31 44.53 174.56 45.03 174.81 45.52 174.94 46.11 174.94 46.8ZM173.98 46.8C173.98 46.28 173.9 45.83 173.73 45.47 173.56 45.11 173.33 44.84 173.04 44.65 172.75 44.46 172.42 44.37 172.05 44.37 171.68 44.37 171.35 44.46 171.06 44.65 170.77 44.84 170.54 45.11 170.37 45.47 170.2 45.83 170.12 46.27 170.12 46.8 170.12 47.33 170.2 47.77 170.37 48.13 170.54 48.49 170.77 48.76 171.06 48.95 171.35 49.14 171.68 49.23 172.05 49.23 172.42 49.23 172.75 49.14 173.04 48.95 173.33 48.76 173.56 48.49 173.73 48.13 173.9 47.77 173.98 47.33 173.98 46.8Z" fill="#AD976E"/><path d="M176.15 50.02 176.15 43.58 180.14 43.58 180.14 44.42 177.12 44.42 177.12 46.38 179.86 46.38 179.86 47.21 177.12 47.21 177.12 50.02 176.15 50.02Z" fill="#AD976E"/><path d="M181.82 42.84C181.66 42.84 181.52 42.78 181.4 42.67 181.28 42.56 181.23 42.43 181.23 42.28 181.23 42.13 181.29 41.99 181.4 41.88 181.52 41.77 181.66 41.71 181.82 41.71 181.98 41.71 182.12 41.77 182.24 41.88 182.36 41.99 182.41 42.12 182.41 42.27 182.41 42.42 182.35 42.56 182.24 42.67 182.12 42.78 181.98 42.84 181.82 42.84ZM182.31 43.58 182.31 50.02 181.34 50.02 181.34 43.58 182.31 43.58Z" fill="#AD976E"/><path d="M187.24 45.28C187.21 44.98 187.07 44.75 186.82 44.59 186.58 44.43 186.27 44.34 185.9 44.34 185.64 44.34 185.41 44.38 185.21 44.46 185.02 44.54 184.87 44.66 184.76 44.8 184.65 44.94 184.6 45.11 184.6 45.29 184.6 45.44 184.64 45.58 184.71 45.69 184.78 45.8 184.88 45.89 185 45.97 185.12 46.05 185.25 46.11 185.38 46.16 185.51 46.21 185.65 46.25 185.77 46.28L186.4 46.44C186.61 46.49 186.82 46.56 187.03 46.64 187.25 46.73 187.45 46.84 187.63 46.98 187.81 47.12 187.96 47.29 188.08 47.5 188.19 47.71 188.25 47.96 188.25 48.25 188.25 48.61 188.16 48.94 187.97 49.22 187.78 49.5 187.51 49.73 187.16 49.89 186.8 50.05 186.38 50.14 185.87 50.14 185.36 50.14 184.97 50.06 184.62 49.91 184.27 49.76 183.99 49.54 183.79 49.26 183.59 48.98 183.48 48.64 183.46 48.26L184.44 48.26C184.46 48.49 184.53 48.69 184.67 48.84 184.81 48.99 184.97 49.11 185.18 49.18 185.39 49.25 185.62 49.29 185.87 49.29 186.14 49.29 186.39 49.25 186.6 49.16 186.81 49.07 186.98 48.95 187.11 48.8 187.23 48.64 187.3 48.46 187.3 48.25 187.3 48.06 187.25 47.9 187.14 47.78 187.03 47.66 186.89 47.56 186.7 47.48 186.52 47.4 186.31 47.33 186.08 47.27L185.32 47.06C184.8 46.92 184.4 46.71 184.09 46.44 183.79 46.17 183.64 45.81 183.64 45.36 183.64 44.99 183.74 44.66 183.94 44.39 184.14 44.11 184.41 43.9 184.76 43.74 185.11 43.58 185.49 43.51 185.92 43.51 186.35 43.51 186.74 43.59 187.08 43.74 187.41 43.89 187.68 44.1 187.87 44.37 188.06 44.64 188.16 44.94 188.17 45.29L187.23 45.29Z" fill="#AD976E"/><path d="M189.91 42.84C189.75 42.84 189.61 42.78 189.49 42.67 189.37 42.56 189.32 42.43 189.32 42.28 189.32 42.13 189.38 41.99 189.49 41.88 189.61 41.77 189.75 41.71 189.91 41.71 190.07 41.71 190.21 41.77 190.33 41.88 190.45 41.99 190.5 42.12 190.5 42.27 190.5 42.42 190.44 42.56 190.33 42.67 190.21 42.78 190.07 42.84 189.91 42.84ZM190.39 43.58 190.39 50.02 189.42 50.02 189.42 43.58 190.39 43.58Z" fill="#AD976E"/></g><g><path d="M76.35 19.63 72.56 25.3 68.77 19.63 63.66 19.63 70.43 29.75 70.44 29.75 70.44 37.21 74.69 37.21 74.69 29.75 74.69 29.75 79.04 23.25 83.75 23.25 83.75 37.21 88 37.21 88 23.25 92.97 23.25 92.97 19.63 76.35 19.63 76.35 19.63Z" fill="#00205C"/><path d="M105.56 19.63 105.56 23.26 108.73 23.26 105.56 26.43 105.56 30.24C105.56 30.72 105.5 31.18 105.39 31.61 105.27 32.04 105.08 32.43 104.82 32.77 104.55 33.11 104.21 33.38 103.79 33.58 103.37 33.78 102.86 33.88 102.26 33.88 101.66 33.88 101.15 33.78 100.73 33.58 100.31 33.38 99.97 33.11 99.71 32.77 99.45 32.43 99.26 32.05 99.14 31.61 99.02 31.18 98.95 30.72 98.95 30.24L98.95 19.63 94.73 19.63 94.73 23.26 97.87 23.26 94.73 26.4 94.73 30.58C94.73 31.64 94.9 32.6 95.25 33.47 95.6 34.34 96.09 35.08 96.74 35.71 97.39 36.33 98.17 36.82 99.1 37.16 100.03 37.51 101.07 37.68 102.23 37.68 103.39 37.68 104.41 37.51 105.35 37.16 106.29 36.81 107.08 36.33 107.75 35.71 108.41 35.09 108.92 34.34 109.28 33.47 109.64 32.6 109.81 31.64 109.81 30.58L109.81 19.63 105.56 19.63Z" fill="#00205C"/><path d="M190.5 37.04 190.5 35.63 179.07 35.63 190.43 21.33 190.43 19.8 177.45 19.8 177.45 21.21 188.64 21.21 177.31 35.46 177.31 37.04 190.51 37.04ZM172.66 19.8 171.11 19.8 171.11 37.04 172.66 37.04 172.66 19.8 172.66 19.8ZM157.9 37.04C162.28 37.04 166.14 34.1 166.14 28.46 166.14 22.82 162.32 19.8 157.95 19.8L152.58 19.8 152.58 37.04 157.9 37.04ZM154.1 35.68 154.1 21.16 157.89 21.16C161.47 21.16 164.55 23.62 164.55 28.46 164.55 33.3 161.41 35.68 157.84 35.68L154.09 35.68ZM148.39 37.04 148.39 35.63 139.68 35.63 139.68 19.8 138.13 19.8 138.13 37.04 148.39 37.04ZM132 19.8 130.45 19.8 130.45 37.04 132 37.04 132 19.8 132 19.8ZM118.53 29.67 118.53 37.04 120.03 37.04 120.03 29.67 126.06 19.8 124.26 19.8 119.28 28.24 114.32 19.8 112.5 19.8 118.53 29.67 118.53 29.67Z" fill="#00205C"/><path d="M24.27 40.72 27.35 38.41 30.33 40.7 27.27 51 24.26 40.73 24.26 40.73ZM17.21 36.72 21.41 36.65 22.43 40.16 13.62 46.78 17.21 36.72 17.21 36.72ZM32.31 40.18 33.46 36.54 37.07 36.63 40.28 46.2 32.32 40.17 32.32 40.17ZM13.74 29.13 17.22 31.54 15.97 35.16 4.92 35.43 13.73 29.13 13.73 29.13ZM38.07 34.83 36.73 31.11 40.35 28.76 49.46 35.45 38.07 34.83 38.07 34.83ZM5.42 21.34 15.79 21.34C15.79 21.34 17.02 24.96 17.02 24.96L13.87 27.2 5.42 21.34 5.42 21.34ZM37.52 24.81 38.68 21.35 49.37 21.21 40.45 26.95 37.52 24.82 37.52 24.82ZM30.77 16.99 32.11 21.34 32.14 21.43 37.17 21.37 35.79 25.43 39.07 27.84 35.07 30.41 34.99 30.46 36.43 34.74 32.27 34.51 32.17 34.51C32.17 34.51 30.82 39.05 30.82 39.05L27.45 36.5 27.38 36.44 23.81 39.12 22.6 34.99 17.79 35.11 19.28 30.94 15.18 28.1 18.78 25.53 17.38 21.34 22.31 21.34C22.31 21.34 23.62 17.04 23.62 17.04L27.19 19.64 30.77 16.98 30.77 16.98ZM16.87 19.84 13.48 9.67 22.29 16.09 21.13 19.9 16.87 19.85 16.87 19.85ZM32.11 15.98 41.3 9.16 37.7 19.77 33.29 19.81 32.11 15.98 32.11 15.98ZM24.09 15.49 27.18 5.34 30.28 15.41 27.12 17.71 24.09 15.49 24.09 15.49ZM27.19 0 22.77 14.52 10.38 5.45 15.27 19.82 0 19.63 12.43 28.23 0.09 37 15.43 36.75 10.5 51.06 22.91 41.75 27.2 56.43 31.81 41.82 43.96 51.14 38.75 36.68 54.4 37.07 41.76 27.88 54.51 19.62 39.24 19.77 44.05 5.45 31.66 14.44 27.19 0 27.19 0Z" fill="#AD976E"/></g></svg>